Coordinates
version=1
nRows=43
nColumns=12
inDegrees=yes

Units are S.I. units (second, meters, Newtons, ...)
Angles are in degrees

endheader
time	SC_y	SC_z	SC_x	AC_y	AC_z	AC_x	GH_y	GH_z	GH_yy	EL_x	PS_y
       0.0              -52.04          37.94          30.76          64.81         -10.34         -16.33          32.88          87.41          107.0          95.26          91.01
   0.03986              -52.04          37.94          30.76           64.8         -10.34         -16.32          32.86           87.4          107.0          95.25          91.01
   0.07972              -52.03          37.93          30.75           64.8         -10.34         -16.32          32.84          87.39          107.0          95.24          91.02
    0.1196              -52.03          37.93          30.75          64.79         -10.34         -16.32          32.82          87.38          107.0          95.23          91.03
    0.1594              -52.02          37.92          30.75          64.79         -10.35         -16.32           32.8          87.37          107.0          95.21          91.03
    0.1993              -52.02          37.91          30.75          64.78         -10.35         -16.31          32.77          87.35          107.0           95.2          91.04
    0.2392              -52.01          37.91          30.74          64.78         -10.35         -16.31          32.75          87.34          107.0          95.19          91.05
     0.279              -52.01           37.9          30.74          64.77         -10.35         -16.31          32.72          87.32          107.0          95.17          91.06
    0.3189               -52.0          37.89          30.73          64.77         -10.35         -16.31          32.69          87.31          107.1          95.16          91.07
    0.3588               -52.0          37.89          30.73          64.76         -10.35          -16.3          32.66          87.29          107.1          95.14          91.08
    0.3986              -51.99          37.88          30.73          64.75         -10.36          -16.3          32.62          87.27          107.1          95.12          91.09
    0.4385              -51.98          37.87          30.72          64.74         -10.36          -16.3          32.59          87.25          107.1           95.1           91.1
    0.4783              -51.98          37.86          30.72          64.74         -10.36         -16.29          32.55          87.23          107.1          95.08          91.11
    0.5182              -51.97          37.85          30.71          64.73         -10.37         -16.29           32.5          87.21          107.1          95.06          91.13
    0.5581              -51.96          37.84           30.7          64.72         -10.37         -16.28          32.46          87.18          107.2          95.03          91.14
    0.5979              -51.95          37.82           30.7          64.71         -10.37         -16.28          32.41          87.16          107.2          95.01          91.16
    0.6378              -51.94          37.81          30.69          64.69         -10.38         -16.27          32.35          87.13          107.2          94.98          91.17
    0.6776              -51.93           37.8          30.68          64.68         -10.38         -16.26          32.29           87.1          107.2          94.94          91.19
    0.7175              -51.92          37.78          30.67          64.67         -10.38         -16.26          32.23          87.06          107.3          94.91          91.21
    0.7574               -51.9          37.76          30.67          64.65         -10.39         -16.25          32.16          87.02          107.3          94.87          91.24
    0.7972              -51.89          37.74          30.66          64.64         -10.39         -16.24          32.08          86.98          107.3          94.83          91.26
    0.8371              -51.87          37.72          30.64          64.62          -10.4         -16.23          31.99          86.94          107.4          94.78          91.29
     0.877              -51.86           37.7          30.63           64.6         -10.41         -16.22           31.9          86.89          107.4          94.73          91.32
    0.9168              -51.84          37.67          30.62          64.58         -10.41         -16.21          31.79          86.83          107.5          94.68          91.35
    0.9567              -51.81          37.64           30.6          64.55         -10.42          -16.2          31.68          86.77          107.5          94.62          91.39
    0.9965              -51.79          37.61          30.59          64.52         -10.43         -16.19          31.55           86.7          107.6          94.55          91.43
     1.036              -51.76          37.58          30.57          64.49         -10.44         -16.17           31.4          86.62          107.6          94.47          91.48
     1.076              -51.73          37.54          30.55          64.46         -10.45         -16.15          31.24          86.53          107.7          94.38          91.53
     1.116               -51.7          37.49          30.52          64.42         -10.47         -16.14          31.05          86.43          107.8          94.28          91.59
     1.156              -51.66          37.44          30.49          64.37         -10.48         -16.11          30.84          86.32          107.9          94.17          91.66
     1.196              -51.61          37.38          30.46          64.32          -10.5         -16.09           30.6          86.19          108.0          94.04          91.73
     1.236              -51.56          37.31          30.43          64.26         -10.52         -16.06          30.32          86.04          108.1          93.89          91.82
     1.276               -51.5          37.23          30.39          64.19         -10.54         -16.03           30.0          85.87          108.2          93.72          91.92
     1.315              -51.43          37.14          30.34          64.12         -10.56         -15.99          29.63          85.67          108.4          93.53          92.04
     1.355              -51.35          37.03          30.28          64.02         -10.59         -15.94           29.2          85.44          108.6           93.3          92.18
     1.395              -51.25          36.91          30.21          63.92         -10.63         -15.89          28.69          85.16          108.8          93.02          92.34
     1.435              -51.14          36.76          30.14          63.79         -10.67         -15.83          28.08          84.84          109.1           92.7          92.53
     1.475               -51.0          36.58          30.04          63.63         -10.72         -15.75          27.35          84.45          109.4          92.31          92.77
     1.515              -50.84          36.36          29.93          63.44         -10.78         -15.66          26.47          83.98          109.8          91.84          93.05
     1.555              -50.64           36.1          29.79          63.22         -10.86         -15.55           25.4           83.4          110.2          91.27          93.39
     1.594              -50.39          35.77          29.61          62.93         -10.95         -15.41          24.07          82.69          110.8          90.56          93.81
     1.634              -50.08          35.36           29.4          62.58         -11.07         -15.24          22.42           81.8          111.6          89.68          94.34
     1.674              -49.69          34.85          29.13          62.14         -11.21         -15.02          20.33          80.68          112.5          88.57           95.0
